<svg t="1707065525942" class="icon" viewBox="0 0 1024 1024" version="1.1" xmlns="http://www.w3.org/2000/svg" p-id="14497" width="200" height="200">
<path  class="theme-shadow" d="M782.336 611.84V372.736c0-19.456-15.36-35.328-34.816-35.328H279.04c-18.944 0-34.816 15.872-34.816 35.328v477.696c0 19.456 15.36 35.328 34.816 35.328h404.48c18.944 0 98.816-64 98.816-83.456v-190.464z" fill="#CAEAFF" p-id="14498"></path>
<path  class="theme" d="M782.336 608.768c-5.632 0-10.24-4.608-10.24-10.24V348.672c0-14.848-12.288-27.136-27.136-27.136H287.744c-5.632 0-10.24-4.608-10.24-10.24s4.608-10.24 10.24-10.24h457.728c26.112 0 47.104 20.992 47.104 47.104v249.856c-0.512 6.144-4.608 10.752-10.24 10.752z m-573.952-235.52c-5.632 0-10.24-4.608-10.24-10.24V348.16c0-26.112 20.992-47.104 47.104-47.104h2.048c5.632 0 10.24 4.608 10.24 10.24s-4.608 10.24-10.24 10.24h-2.048c-14.848 0-27.136 12.288-27.136 27.136V363.52c0 5.632-4.608 9.728-9.728 9.728zM482.816 896H245.248c-26.112 0-47.104-20.992-47.104-47.104V397.312c0-5.632 4.608-10.24 10.24-10.24s10.24 4.608 10.24 10.24v451.584c0 14.848 12.288 27.136 27.136 27.136h237.568c5.632 0 10.24 4.608 10.24 10.24-0.512 5.12-5.12 9.728-10.752 9.728z"  p-id="14499"></path>
<path d="M312.832 545.792h232.448" fill="#FCEE21" p-id="14500"></path>
<path  class="theme" d="M545.28 556.032H312.832c-5.632 0-10.24-4.608-10.24-10.24s4.608-10.24 10.24-10.24h232.448c5.632 0 10.24 4.608 10.24 10.24s-4.608 10.24-10.24 10.24z"  p-id="14501"></path>
<path d="M312.832 642.56H501.76" fill="#FCEE21" p-id="14502"></path>
<path  class="theme" d="M501.76 652.8H312.832c-5.632 0-10.24-4.608-10.24-10.24s4.608-10.24 10.24-10.24H501.76c5.632 0 10.24 4.608 10.24 10.24s-4.608 10.24-10.24 10.24z"  p-id="14503"></path>
<path d="M312.832 739.328h125.44" fill="#FCEE21" p-id="14504"></path>
<path  class="theme" d="M438.272 749.056H313.344c-5.632 0-10.24-4.608-10.24-10.24s4.608-10.24 10.24-10.24h124.928c5.632 0 10.24 4.608 10.24 10.24s-4.608 10.24-10.24 10.24z"  p-id="14505"></path>
<path d="M315.904 442.88h466.432" fill="#FCEE21" p-id="14506"></path>
<path  class="theme" d="M782.336 453.12H315.904c-5.632 0-10.24-4.608-10.24-10.24s4.608-10.24 10.24-10.24h466.432c5.632 0 10.24 4.608 10.24 10.24s-4.608 10.24-10.24 10.24z"  p-id="14507"></path>
<path class="theme-solid" d="M381.952 369.152h-43.008c-2.048 0-3.584-1.536-3.584-3.584V248.832c0-2.048 1.536-3.584 3.584-3.584h43.008c2.048 0 3.584 1.536 3.584 3.584v116.736c0 2.048-1.536 3.584-3.584 3.584z" fill="#FFFFFF" p-id="14508"></path>
<path  class="theme-solid" d="M359.936 379.392c-19.456 0-35.328-15.872-35.328-35.328V270.336c0-19.456 15.872-35.328 35.328-35.328s35.328 15.872 35.328 35.328v73.728c0.512 19.456-15.36 35.328-35.328 35.328z m0-124.416c-8.192 0-15.36 6.656-15.36 15.36v73.728c0 8.192 6.656 15.36 15.36 15.36 8.192 0 15.36-6.656 15.36-15.36V270.336c0-8.704-6.656-15.36-15.36-15.36z m506.88 641.024h-24.064c-5.632 0-10.24-4.608-10.24-10.24s4.608-10.24 10.24-10.24h24.064c5.632 0 10.24 4.608 10.24 10.24s-4.608 10.24-10.24 10.24z m-743.424 0h-30.72c-5.632 0-10.24-4.608-10.24-10.24s4.608-10.24 10.24-10.24h30.72c5.632 0 10.24 4.608 10.24 10.24s-4.608 10.24-10.24 10.24z m680.448 0H155.136c-5.632 0-10.24-4.608-10.24-10.24s4.608-10.24 10.24-10.24H803.84c5.632 0 10.24 4.608 10.24 10.24s-4.608 10.24-10.24 10.24z"  p-id="14509"></path>
<path class="theme-shadow" d="M538.624 776.704c0 70.144 56.832 126.976 126.976 126.976s126.976-56.832 126.976-126.976-56.832-126.976-126.976-126.976-126.976 56.32-126.976 126.976z" fill="#FFFFFF" p-id="14510"></path>
<path  class="theme" d="M659.968 913.92c-82.944 0-150.016-67.072-150.016-150.016s67.072-150.016 150.016-150.016 150.016 67.584 150.016 150.016-67.072 150.016-150.016 150.016z m0-280.064c-71.68 0-129.536 58.368-129.536 129.536s57.856 130.048 129.536 130.048 129.536-58.368 129.536-129.536c0-71.68-57.856-130.048-129.536-130.048z"  p-id="14511"></path>
<path  class="theme" d="M649.728 836.608c-2.56 0-5.12-1.024-6.656-2.56l-65.024-58.368c-4.096-3.584-4.608-10.24-1.024-14.336 3.584-4.096 10.24-4.608 14.336-1.024l56.832 51.2 77.312-101.376c3.584-4.608 9.728-5.12 14.336-2.048 4.608 3.584 5.12 9.728 2.048 14.336l-83.968 110.08c-1.536 2.048-4.096 3.584-7.168 4.096h-1.024z" p-id="14512"></path>
<path  class="theme-solid" d="M692.224 164.864c-14.848 0-27.136-12.288-27.136-27.136s12.288-27.136 27.136-27.136 27.136 12.288 27.136 27.136-11.776 27.136-27.136 27.136z m0-40.96c-7.68 0-13.824 6.144-13.824 13.824s6.144 13.824 13.824 13.824 13.824-6.144 13.824-13.824-6.144-13.824-13.824-13.824z" fill="#47B7F8" p-id="14513"></path>
<path class="theme-solid" d="M248.832 208.384h-11.776v-11.776c0-3.072-2.56-5.632-5.632-5.632s-6.144 2.56-6.144 5.632v11.776h-11.776c-3.072 0-5.632 2.56-5.632 5.632 0 3.072 2.56 5.632 5.632 5.632H225.28v11.776c0 3.072 2.56 5.632 5.632 5.632s5.632-2.56 5.632-5.632V220.16h11.776c3.072 0 5.632-2.56 5.632-5.632 0.512-3.072-2.048-6.144-5.12-6.144z m604.672 116.736h-11.776v-11.776c0-3.072-2.56-5.632-5.632-5.632s-5.632 2.56-5.632 5.632v11.776h-11.776c-3.072 0-5.632 2.56-5.632 5.632 0 3.072 2.56 5.632 5.632 5.632h11.776V348.16c0 3.072 2.56 5.632 5.632 5.632s5.632-2.56 5.632-5.632v-11.776h11.776c3.072 0 5.632-2.56 5.632-5.632 0.512-3.072-2.56-5.632-5.632-5.632z"  p-id="14514"></path>
<path  class="theme-solid" d="M112.128 482.816h-13.824v-13.824c0-3.584-3.072-6.656-6.656-6.656-3.584 0-6.656 3.072-6.656 6.656v13.824h-13.824c-3.584 0-6.656 3.072-6.656 6.656 0 3.584 3.072 6.656 6.656 6.656h13.824v13.824c0 3.584 3.072 6.656 6.656 6.656s6.656-3.072 6.656-6.656v-13.824h13.824c3.584 0 6.656-3.072 6.656-6.656s-3.072-6.656-6.656-6.656z m217.6-335.36c0 5.632 4.608 10.24 10.24 10.24s10.24-4.608 10.24-10.24-4.608-10.24-10.24-10.24-10.24 5.12-10.24 10.24z m448 53.76c0 7.168 6.144 13.312 13.312 13.312 7.168 0 13.312-6.144 13.312-13.312s-6.144-13.312-13.312-13.312c-7.168-0.512-13.312 5.632-13.312 13.312 0-0.512 0-0.512 0 0z"  p-id="14515"></path>
<path  d="M531.968 154.112c0 7.168 6.144 13.312 13.312 13.312 7.168 0 13.312-6.144 13.312-13.312 0-7.168-6.144-13.312-13.312-13.312-7.168 0-13.312 6.144-13.312 13.312z" fill="#CAEAFF" p-id="14516"></path>
<path  class="theme-solid" d="M124.928 330.752c-14.848 0-27.136-12.288-27.136-27.136s12.288-27.136 27.136-27.136 27.136 12.288 27.136 27.136c0.512 14.848-11.776 27.136-27.136 27.136z m0-41.472c-7.68 0-13.824 6.144-13.824 13.824s6.144 13.824 13.824 13.824c7.68 0 13.824-6.144 13.824-13.824s-6.144-13.824-13.824-13.824z"  p-id="14517"></path>
<path  class="theme-shadow" d="M472.576 204.8c-1.536-1.536-3.584-1.536-5.12 0-0.512 0.512-1.024 1.536-1.024 2.56s0.512 2.048 1.024 2.56l11.776 11.776c0.512 0.512 1.536 1.024 2.56 1.024s2.048-0.512 2.56-1.024c1.536-1.536 1.536-3.584 0-5.12L472.576 204.8z m31.744 31.744c-0.512-0.512-1.536-1.024-2.56-1.024s-2.048 0.512-2.56 1.024c-1.536 1.536-1.536 3.584 0 5.12l11.776 11.776c0.512 0.512 1.536 1.024 2.56 1.024s2.048-0.512 2.56-1.024c0.512-0.512 1.024-1.536 1.024-2.56s-0.512-2.048-1.024-2.56l-11.776-11.776z m-2.56-13.312c1.024 0 2.048-0.512 2.56-1.024l11.776-11.776c0.512-0.512 1.024-1.536 1.024-2.56s-0.512-2.048-1.024-2.56c-1.536-1.536-3.584-1.536-5.12 0l-11.776 11.776c-1.536 1.536-1.536 3.584 0 5.12 0.512 1.024 1.536 1.024 2.56 1.024z m-22.528 13.312l-11.776 11.776c-0.512 0.512-1.024 1.536-1.024 2.56s0.512 2.048 1.024 2.56c0.512 0.512 1.536 1.024 2.56 1.024s2.048-0.512 2.56-1.024l11.776-11.776c1.536-1.536 1.536-3.584 0-5.12-1.024-1.536-3.584-1.536-5.12 0z m2.56-7.168c0-2.048-1.536-3.584-3.584-3.584H460.8c-2.048 0-3.584 1.536-3.584 3.584 0 2.048 1.536 3.584 3.584 3.584h16.896c2.048 0 4.096-1.536 4.096-3.584z m40.96-3.584h-16.896c-2.048 0-3.584 1.536-3.584 3.584 0 2.048 1.536 3.584 3.584 3.584h16.896c2.048 0 3.584-1.536 3.584-3.584s-1.536-3.584-3.584-3.584z m-30.72-31.232c-2.048 0-3.584 1.536-3.584 3.584V215.04c0 2.048 1.536 3.584 3.584 3.584 2.048 0 3.584-1.536 3.584-3.584v-16.896c0-1.536-1.536-3.584-3.584-3.584z m0 45.056c-2.048 0-3.584 1.536-3.584 3.584v16.896c0 2.048 1.536 3.584 3.584 3.584 2.048 0 3.584-1.536 3.584-3.584v-16.896c0-2.048-1.536-3.584-3.584-3.584zM906.24 455.68c-1.536-1.536-3.584-1.536-5.12 0-0.512 0.512-1.024 1.536-1.024 2.56s0.512 2.048 1.024 2.56l11.776 11.776c0.512 0.512 1.536 1.024 2.56 1.024s2.048-0.512 2.56-1.024c1.536-1.536 1.536-3.584 0-5.12L906.24 455.68zM937.984 487.424c-0.512-0.512-1.536-1.024-2.56-1.024s-2.048 0.512-2.56 1.024c-1.536 1.536-1.536 3.584 0 5.12l11.776 11.776c0.512 0.512 1.536 1.024 2.56 1.024s2.048-0.512 2.56-1.024c0.512-0.512 1.024-1.536 1.024-2.56s-0.512-2.048-1.024-2.56c0 0.512-11.776-11.776-11.776-11.776zM935.424 474.112c1.024 0 2.048-0.512 2.56-1.024l11.776-11.776c0.512-0.512 1.024-1.536 1.024-2.56s-0.512-2.048-1.024-2.56c-1.536-1.536-3.584-1.536-5.12 0l-11.776 11.776c-1.536 1.536-1.536 3.584 0 5.12 0.512 1.024 1.536 1.024 2.56 1.024zM912.896 487.424l-11.776 11.776c-0.512 0.512-1.024 1.536-1.024 2.56s0.512 2.048 1.024 2.56 1.536 1.024 2.56 1.024 2.048-0.512 2.56-1.024l11.776-11.776c1.536-1.536 1.536-3.584 0-5.12-1.024-1.536-3.584-1.536-5.12 0zM915.456 480.256c0-2.048-1.536-3.584-3.584-3.584h-16.896c-2.048 0-3.584 1.536-3.584 3.584s1.536 3.584 3.584 3.584h16.896c1.536 0.512 3.584-1.536 3.584-3.584zM956.416 476.672h-16.896c-2.048 0-3.584 1.536-3.584 3.584s1.536 3.584 3.584 3.584h16.896c2.048 0 3.584-1.536 3.584-3.584s-1.536-3.584-3.584-3.584zM925.696 445.952c-2.048 0-3.584 1.536-3.584 3.584v16.896c0 2.048 1.536 3.584 3.584 3.584s3.584-1.536 3.584-3.584v-16.896c0-2.048-1.536-3.584-3.584-3.584zM925.696 490.496c-2.048 0-3.584 1.536-3.584 3.584v16.896c0 2.048 1.536 3.584 3.584 3.584s3.584-1.536 3.584-3.584v-16.896c0-2.048-1.536-3.584-3.584-3.584z" fill="#CAEAFF" p-id="14518"></path>
<path  class="theme-solid" d="M648.704 369.152h-43.008c-2.048 0-3.584-1.536-3.584-3.584V248.832c0-2.048 1.536-3.584 3.584-3.584h43.008c2.048 0 3.584 1.536 3.584 3.584v116.736c0 2.048-1.536 3.584-3.584 3.584z" fill="#FFFFFF" p-id="14519"></path>
<path   class="theme-solid" d="M626.688 379.392c-19.456 0-35.328-15.872-35.328-35.328V270.336c0-19.456 15.872-35.328 35.328-35.328s35.328 15.872 35.328 35.328v73.728c0.512 19.456-15.36 35.328-35.328 35.328z m0-124.416c-8.192 0-15.36 6.656-15.36 15.36v73.728c0 8.192 6.656 15.36 15.36 15.36 8.192 0 15.36-6.656 15.36-15.36V270.336c0-8.704-6.656-15.36-15.36-15.36z"  p-id="14520"></path>
<path   d="M270.848 420.864c-5.632 0-10.24-4.608-10.24-10.24v-30.72c0-17.92 14.336-32.256 32.256-32.256h17.92c5.632 0 10.24 4.608 10.24 10.24s-4.608 10.24-10.24 10.24h-17.92c-6.656 0-11.776 5.632-11.776 11.776v30.72c0 5.632-4.608 10.24-10.24 10.24z m0 194.56c-5.632 0-10.24-4.608-10.24-10.24V494.592c0-5.632 4.608-10.24 10.24-10.24s10.24 4.608 10.24 10.24v110.592c0 5.632-4.608 10.24-10.24 10.24z" fill="#FFFFFF" p-id="14521"></path>
</svg>