<svg t="1707078588130" class="icon" viewBox="0 0 1024 1024" version="1.1" xmlns="http://www.w3.org/2000/svg" p-id="17405" width="200" height="200">
<path class="theme" d="M1008.091214 5.739298a31.921426 31.921426 0 0 0-35.146365 0L14.919441 644.441123a31.866766 31.866766 0 0 0 5.739297 56.135796l249.686773 99.973097 117.464289 205.685492a32.249386 32.249386 0 0 0 55.589196 0.655919L509.865528 896.423615l309.484787 123.859507a28.587168 28.587168 0 0 0 11.751895 2.186399 31.976086 31.976086 0 0 0 31.976086-26.838049L1022.740088 37.606064a31.866766 31.866766 0 0 0-14.703534-31.812106zM416.069008 924.737483l-89.751681-155.562294L931.020647 121.235828z m0 0" p-id="17406"></path>
</svg>